<svg width="415" height="50" viewBox="0 0 415 50" fill="none" xmlns="http://www.w3.org/2000/svg">
<path d="M0.572021 20C0.572021 8.9543 9.52633 0 20.572 0H394.572C405.618 0 414.572 8.95431 414.572 20V50H0.572021V20Z" fill="black" fill-opacity="0.4"/>
<circle cx="351.072" cy="24.5" r="11.5" stroke="#3A4151" stroke-width="2"/>
<circle cx="351.072" cy="22.0549" r="4.33639" stroke="#3A4151" stroke-width="2"/>
<path d="M358.299 33.7374C358.299 29.1939 355.616 26.5107 351.072 26.5107C346.529 26.5107 343.845 29.1939 343.845 33.7374" stroke="#3A4151" stroke-width="2"/>
<path d="M57.8562 14.2935L48.4798 21.472C47.9855 21.8505 47.6956 22.4375 47.6956 23.0601L47.6956 29.0178L47.6956 33.6372C47.6956 34.7418 48.591 35.6372 49.6956 35.6372L53.434 35.6372C54.5385 35.6372 55.434 34.7418 55.434 33.6372L55.434 28.6504C55.434 27.5458 56.3294 26.6504 57.434 26.6504L60.4023 26.6504C61.5069 26.6504 62.4023 27.5458 62.4023 28.6504L62.4023 33.6372C62.4023 34.7418 63.2978 35.6372 64.4023 35.6372L68.4485 35.6372C69.5531 35.6372 70.4485 34.7418 70.4485 33.6372L70.4485 23.0601C70.4485 22.4375 70.1586 21.8505 69.6643 21.472L60.2878 14.2935C59.5704 13.7442 58.5737 13.7442 57.8562 14.2935Z" stroke="#FBFBFB" stroke-width="2"/>
<rect x="194.59" y="15.8242" width="6.81208" height="17.3514" rx="2" stroke="#3A4151" stroke-width="2"/>
<rect x="201.403" y="27.906" width="6.81208" height="12.3387" rx="2" transform="rotate(-90 201.403 27.906)" stroke="#3A4151" stroke-width="2"/>
<rect x="213.741" y="15.8242" width="6.81208" height="17.3514" rx="2" stroke="#3A4151" stroke-width="2"/>
<rect x="220.553" y="18.9089" width="4.39001" height="11.182" rx="2" stroke="#3A4151" stroke-width="2"/>
<rect x="190.2" y="18.9089" width="4.39001" height="11.182" rx="2" stroke="#3A4151" stroke-width="2"/>
</svg>
